<svg width="240" height="240" viewBox="0 0 240 240" fill="none" xmlns="http://www.w3.org/2000/svg">
<path d="M192.724 0H47.2757C21.166 0 0 21.166 0 47.2757V192.724C0 218.834 21.166 240 47.2757 240H192.724C218.834 240 240 218.834 240 192.724V47.2757C240 21.166 218.834 0 192.724 0Z" fill="#142328"/>
<path d="M115.024 160.803C115.054 158.331 114.348 155.907 112.996 153.837C111.645 151.767 109.708 150.146 107.433 149.18C105.158 148.213 102.647 147.945 100.219 148.409C97.7909 148.873 95.5556 150.048 93.7972 151.785C92.0388 153.523 90.8366 155.744 90.3433 158.166C89.85 160.588 90.088 163.102 91.027 165.389C91.966 167.675 93.5635 169.631 95.6167 171.008C97.6699 172.384 100.086 173.119 102.558 173.12C104.188 173.141 105.807 172.839 107.319 172.23C108.832 171.62 110.208 170.716 111.368 169.57C112.528 168.424 113.449 167.059 114.076 165.554C114.704 164.049 115.026 162.434 115.024 160.803ZM125.2 140.675V181.081H114.829V177.445C111.136 180.433 106.516 182.042 101.765 181.994C98.9335 182.069 96.1159 181.577 93.4782 180.545C90.8405 179.514 88.4361 177.964 86.407 175.988C84.3779 174.012 82.7651 171.65 81.664 169.041C80.5628 166.431 79.9954 163.628 79.9954 160.796C79.9954 157.963 80.5628 155.16 81.664 152.551C82.7651 149.941 84.3779 147.579 86.407 145.603C88.4361 143.627 90.8405 142.078 93.4782 141.046C96.1159 140.015 98.9335 139.522 101.765 139.597C106.55 139.577 111.192 141.228 114.889 144.266V140.675H125.2ZM159.621 171.863H151.824C149.444 171.863 147.918 170.83 147.918 168.69V149.774H159.621V140.675H147.963V129.151H137.487V140.675H129.615V149.819H137.502V171.294C137.502 176.711 141.408 181.006 148.442 181.006H159.666L159.621 171.863ZM183.251 182.039C195.224 182.039 201.988 176.442 201.988 168.69C201.988 163.183 197.992 159.067 189.626 157.301L180.782 155.52C175.649 154.592 174.033 153.65 174.033 151.794C174.033 149.355 176.502 147.858 181.066 147.858C186.005 147.858 189.627 149.175 190.674 153.65H201.045C200.461 145.254 194.281 139.642 181.725 139.642C170.89 139.642 163.272 144.042 163.272 152.527C163.272 158.409 167.463 162.24 176.502 164.11L186.394 166.355C190.285 167.104 191.333 168.121 191.333 169.708C191.333 172.237 188.339 173.823 183.625 173.823C177.639 173.823 174.212 172.521 172.88 168.031H162.404C163.901 176.442 170.306 182.039 183.236 182.039H183.251ZM37.9822 126.353H77.0867V135.676H48.5477V149.04H76.3235V158.02H48.5477V171.488H77.0867V180.827H37.9822V126.353Z" fill="#06C167"/>
<path d="M201.09 79.0322V71.6992H198.306C196.364 71.6215 194.437 72.0649 192.724 72.9833C191.011 73.9016 189.574 75.2616 188.564 76.9221V72.0134H180.617V111.806H188.639V89.1787C188.639 83.013 192.455 79.0322 197.708 79.0322H201.09ZM143.383 88.2958C143.95 85.4336 145.491 82.8565 147.746 81.0044C150 79.1522 152.827 78.1397 155.745 78.1397C158.662 78.1397 161.49 79.1522 163.744 81.0044C165.998 82.8565 167.54 85.4336 168.106 88.2958H143.383ZM155.939 71.2352C153.211 71.2115 150.505 71.7287 147.978 72.7569C145.45 73.785 143.152 75.3039 141.215 77.2255C139.278 79.1472 137.741 81.4337 136.692 83.9529C135.644 86.472 135.105 89.1739 135.108 91.9024C135.108 103.77 144.491 112.659 156.658 112.659C160.036 112.728 163.383 111.993 166.421 110.515C169.46 109.037 172.105 106.859 174.137 104.159L168.331 99.9389C167.008 101.792 165.254 103.294 163.22 104.316C161.186 105.338 158.934 105.85 156.658 105.805C153.429 105.847 150.294 104.727 147.821 102.651C145.349 100.574 143.705 97.6785 143.189 94.4915H176.113V91.9024C176.113 80.0499 167.538 71.2352 155.85 71.2352H155.939ZM110.085 105.805C107.357 105.788 104.696 104.962 102.436 103.434C100.176 101.905 98.4198 99.7419 97.388 97.2163C96.3563 94.6908 96.0956 91.9164 96.6386 89.2428C97.1817 86.5693 98.5043 84.1165 100.44 82.1936C102.375 80.2708 104.836 78.9641 107.513 78.4384C110.19 77.9127 112.963 78.1914 115.482 79.2395C118.001 80.2875 120.153 82.058 121.666 84.3275C123.18 86.5971 123.988 89.2641 123.988 91.9922C123.984 93.8127 123.621 95.6144 122.92 97.2944C122.219 98.9744 121.193 100.5 119.902 101.783C118.611 103.066 117.079 104.081 115.394 104.772C113.71 105.462 111.906 105.813 110.085 105.805V105.805ZM88.2958 111.806H96.2424V106.808C98.1428 108.708 100.399 110.215 102.882 111.242C105.365 112.269 108.027 112.796 110.714 112.794C113.492 112.869 116.256 112.386 118.844 111.374C121.432 110.363 123.791 108.843 125.782 106.905C127.773 104.967 129.356 102.649 130.437 100.089C131.517 97.529 132.074 94.7784 132.074 91.9997C132.074 89.221 131.517 86.4705 130.437 83.9105C129.356 81.3505 127.773 79.0329 125.782 77.0946C123.791 75.1563 121.432 73.6365 118.844 72.625C116.256 71.6135 113.492 71.1308 110.714 71.2053C108.038 71.2038 105.388 71.732 102.917 72.7594C100.446 73.7868 98.2033 75.2931 96.3173 77.1915V57.1827H88.2958V111.806ZM60.0112 105.401C67.7184 105.401 73.6746 99.5498 73.6746 90.8998V57.1827H82.0253V111.806H73.7495V106.733C71.8286 108.668 69.537 110.196 67.0118 111.225C64.4866 112.253 61.7798 112.762 59.0534 112.719C47.0811 112.719 37.9822 104.204 37.9822 91.3338V57.1827H46.3927V90.8998C46.3927 99.7144 52.2741 105.401 60.0711 105.401" fill="#F6F0EA"/>
</svg>
